<svg xmlns="http://www.w3.org/2000/svg" version="1.1" xmlns:xlink="http://www.w3.org/1999/xlink" xmlns:svgjs="http://svgjs.dev/svgjs" width="1500" height="1505" viewBox="0 0 1500 1505"><g transform="matrix(1,0,0,1,0,-2.676809445325034)"><svg viewBox="0 0 280 281" data-background-color="#fbfbfb" preserveAspectRatio="xMidYMid meet" height="1505" width="1500" xmlns="http://www.w3.org/2000/svg" xmlns:xlink="http://www.w3.org/1999/xlink"><g id="tight-bounds" transform="matrix(1,0,0,1,0,0.5000756008486178)"><svg viewBox="0 0 280 280" height="280" width="280"><g><svg viewBox="0 0 280 280" height="280" width="280"><g><svg viewBox="0 0 280 280" height="280" width="280"><g id="textblocktransform"><svg viewBox="0 0 280 280" height="280" width="280" id="textblock"><g><svg viewBox="0 0 280 280" height="280" width="280"><g transform="matrix(1,0,0,1,83.07790411448293,83.07790411448293)"><svg viewBox="0 0 113.84419177103413 113.84419177103413" height="113.84419177103413" width="113.84419177103413"><g id="icon-0"><circle r="57" cx="56.92209588551707" cy="56.92209588551707" fill="#e84443" data-fill-palette-color="accent"></circle><svg xmlns="http://www.w3.org/2000/svg" xmlns:xlink="http://www.w3.org/1999/xlink" version="1.1" x="17.07662876565512" y="17.07662876565512" viewBox="0.4148826387845648 10.953987481419478 99.17026234029768 74.75701251858052" enable-background="new 0 0 100 100" xml:space="preserve" height="79.6909342397239" width="79.6909342397239" class="icon-jxe-0" data-fill-palette-color="quaternary" id="jxe-0"><path fill="#000000" d="M55.169 40.57H44.884C44.591 40.57 44.591 40.132 44.884 40.132H55.169C55.46 40.132 55.46 40.569 55.169 40.57M54.436 39.792C54.671 39.792 54.864 39.698 54.864 39.582V38.861C54.864 38.743 54.673 38.647 54.44 38.647V38.193H54.833C54.856 38.193 54.874 38.125 54.874 38.048 54.874 37.967 54.856 37.899 54.833 37.899H54.112V38.943H54.347C54.487 38.943 54.532 38.971 54.532 39.035V39.45C54.532 39.474 54.491 39.497 54.436 39.497 54.386 39.497 54.347 39.475 54.347 39.45V39.291C54.347 39.269 54.27 39.247 54.179 39.247 54.091 39.247 54.018 39.268 54.018 39.291V39.582C54.018 39.696 54.204 39.792 54.436 39.792M52.943 39.582V38.085C52.943 37.966 53.131 37.87 53.363 37.87 53.597 37.87 53.783 37.966 53.783 38.085V39.582C53.783 39.696 53.597 39.792 53.363 39.792 53.132 39.792 52.943 39.696 52.943 39.582M53.271 39.45C53.271 39.475 53.312 39.497 53.365 39.497S53.457 39.474 53.457 39.45V38.212C53.457 38.187 53.418 38.167 53.365 38.167S53.271 38.187 53.271 38.212zM52.68 39.092C52.703 39.092 52.721 39.029 52.721 38.947S52.703 38.798 52.68 38.798H52.116C52.094 38.798 52.08 38.866 52.08 38.947S52.094 39.092 52.116 39.092zM51.438 39.792C51.669 39.792 51.858 39.696 51.858 39.582V37.927C51.858 37.906 51.786 37.888 51.696 37.888S51.53 37.906 51.53 37.927V39.45C51.53 39.474 51.489 39.497 51.438 39.497 51.384 39.497 51.341 39.475 51.341 39.45V37.927C51.341 37.906 51.27 37.888 51.181 37.888S51.015 37.906 51.015 37.927V39.582C51.015 39.696 51.201 39.792 51.438 39.792M51.472 53.631H48.548C48.255 53.631 48.255 54.069 48.548 54.069H51.472C51.765 54.068 51.765 53.631 51.472 53.631M99.467 12.225L83.666 25.257 84.123 25.82C84.252 25.98 84.197 26.158 84.078 26.257L71.205 36.848C72.492 37.881 73.43 39.031 73.971 40.331L74.475 40.398A0.8 0.8 0 0 1 74.674 40.513C76.168 42.39 77.274 44.661 77.887 47.171V47.175C78.163 48.294 78.341 49.466 78.407 50.673V50.68C78.428 51.046 78.438 51.421 78.438 51.8 78.438 58.098 75.444 63.602 71 66.455 70.692 66.652 70.377 66.836 70.06 67.009L69.146 71.698 68.439 75.323C67.5 77.763 65.437 80.519 63.406 82.13A0.294 0.294 0 0 1 63.098 82.384H60.674A0.32 0.32 0 0 1 60.362 82.072V76.161H60.034L57.86 80.659A0.28 0.28 0 0 1 57.692 80.763H54.194L52.801 85.489C52.77 85.592 52.608 85.711 52.502 85.711H47.494C47.39 85.711 47.224 85.592 47.197 85.489L45.801 80.763H42.307A0.28 0.28 0 0 1 42.139 80.659L39.965 76.161H39.637V82.072A0.32 0.32 0 0 1 39.326 82.384H36.902A0.296 0.296 0 0 1 36.595 82.13C34.564 80.518 32.501 77.764 31.562 75.323L30.857 71.698 29.943 67.009C29.623 66.836 29.311 66.651 29 66.455 24.553 63.601 21.561 58.098 21.561 51.8A19.5 19.5 0 0 1 22.11 47.171H22.112C22.725 44.659 23.831 42.39 25.325 40.513A0.8 0.8 0 0 1 25.526 40.398L26.026 40.331C26.569 39.032 27.507 37.881 28.794 36.848L15.921 26.257C15.802 26.158 15.747 25.979 15.878 25.82L16.335 25.257 0.532 12.225C0.372 12.093 0.393 11.902 0.493 11.784L1.072 11.1A0.29 0.29 0 0 1 1.343 10.955L2.813 10.977C2.938 10.981 2.973 11.024 2.987 11.036L34.787 33.533H35.51V30.118L36.555 28.857 37.063 28.656 34.922 26.21 34.873 26.136 32.574 21.098C32.41 20.738 32.731 20.481 33.045 20.725L40.6 26.525A1 1 0 0 1 40.713 26.704L41.322 29.422 43.57 28.418 44.695 19.354C45.089 17.554 45.91 16.615 47.482 16.615H52.52C53.929 16.615 54.748 17.363 55.181 18.858 55.227 19.01 55.27 19.185 55.306 19.354L56.431 28.416 58.681 29.422 59.288 26.704C59.294 26.679 59.381 26.543 59.4 26.525L66.956 20.725C67.269 20.481 67.593 20.738 67.427 21.098L65.128 26.136 65.079 26.21 62.937 28.656 63.445 28.857 64.49 30.118V33.533H65.214L97.013 11.035C97.028 11.023 97.065 10.98 97.19 10.976L98.659 10.954C98.789 10.953 98.879 11.012 98.93 11.099L99.508 11.784C99.607 11.902 99.628 12.093 99.467 12.225M62.841 29.283L62.697 35.311 64.337 34.155H63.87V30.343L63.07 29.375zM56.332 42.768L57.449 43.465C57.799 43.684 57.47 44.212 57.121 43.992 56.955 43.889 56.027 43.485 55.752 43.099L55.158 45.133 57.683 44.181 97.802 11.588 97.29 11.598 62.678 36.084 62.637 37.836C62.627 38.252 62.006 38.235 62.018 37.82L62.235 28.624C62.235 28.602 62.296 28.444 62.313 28.428L64.582 25.834 66.346 21.975 59.868 26.949zM53.919 47.177L55.908 40.34 55.181 34.394C54.822 32.761 54.173 32.171 53.005 32.171H46.993C45.825 32.171 45.176 32.761 44.815 34.394L44.092 40.34 46.079 47.177 47.099 50.682 47.982 53.716 47.996 53.802C47.996 53.981 47.187 57.364 47.187 57.364L49.998 58.207 52.81 57.364S52 53.98 52 53.802L52.012 53.716 52.898 50.682zM52.626 53.838L52.636 53.899 54.46 51.423C54.322 51.376 54.257 51.241 54.263 51.111H53.419zM56.768 73.809L57.047 72.371 57.375 72.433 57.51 71.7 58.877 64.3 52.582 63.38A0.33 0.33 0 0 1 52.439 63.276L52.385 63.17 51.488 61.25H48.512L47.612 63.17 47.559 63.276A0.3 0.3 0 0 1 47.416 63.38L41.125 64.3 42.49 71.7 42.626 72.433 42.954 72.371 43.235 73.81 42.891 73.873 43.252 75.822H46.461L47.467 71.699 48.013 69.465C48.039 69.355 48.199 69.23 48.314 69.23H51.683C51.796 69.23 51.959 69.355 51.984 69.465L52.529 71.699 53.535 75.822H56.75L57.109 73.873zM36.885 53.143L36.836 53.063 36.854 52.87 36.79 52.839 36.757 52.937 36.79 53.096zM36.773 53.436L36.726 53.464 36.855 53.497zM36.79 52.773L36.757 52.646 36.71 52.758zM36.886 52.438L36.677 52.455V52.567L36.726 52.598 36.757 52.468zM36.372 53.191V53.288L36.483 53.386 36.563 53.323 36.452 53.272 36.436 53.095H36.323zM37.239 50.718L37.399 50.737 37.479 50.766 37.493 50.682 37.495 50.655 37.464 50.641 37.348 50.682zM37.368 50.507L37.399 50.462 37.319 50.444 37.255 50.542zM37.915 50.157V50.235L37.993 50.205 38.026 50.157zM37.946 49.369L37.993 49.271 37.915 49.336zM38.222 50.582L38.091 50.605 38.148 50.681 38.156 50.685 38.222 50.771 38.138 50.75 38.187 50.83 38.218 51.229V52.61L38.22 52.854 38.222 53.151 38.091 53.221 38.222 53.192 38.226 54.006 39.021 54.252 38.994 54.148V51.871L39.055 51.984H39.184L39.168 51.855 39.055 51.789 38.994 51.48 39.088 51.418 38.994 51.408 38.992 50.677V50.307L39.07 50.264 39.152 50.362 39.232 50.279 39.216 50.183 38.991 50.231 39.2 50.103 39.118 50.04 39.038 49.992 38.993 49.839 38.991 49.173 38.223 49.137 38.217 49.623 38.155 49.735 38.167 49.9 38.122 49.992 38.183 50.344 38.156 50.28V50.394H38.191zM39.696 51.859L39.585 51.65 39.569 51.763zM39.665 52.1L39.714 52.149V52.003zM39.57 52.438V52.549L39.65 52.453zM39.552 53.996L39.505 54.076 39.376 54.06 39.456 54.14 39.632 54.045zM39.391 52.501L39.407 52.598 39.423 52.501zM39.489 51.695L39.456 51.667 39.407 51.764zM39.536 53.833L39.505 53.672 39.423 53.69 39.456 53.819zM39.505 50.348L39.456 50.316 39.327 50.381 39.489 50.429zM39.407 49.288L39.36 49.192 39.296 49.399zM39.216 53.834L39.2 53.932H39.296L39.376 53.852zM39.103 53.545L39.134 53.691 39.216 53.722zM39.232 52.855L39.152 52.773 39.054 52.804 39.023 52.855zM39.296 52.66L39.263 52.531 39.07 52.5 39.088 52.581V52.727L39.152 52.612 39.232 52.727 39.296 52.743zM39.216 51.068L39.054 50.991 39.152 51.15zM39.038 51.572L39.183 51.474V51.422zM39.216 50.59L39.263 50.494 39.183 50.479 39.167 50.559zM39.278 49.642L39.247 49.546 39.118 49.531 39.2 49.657zM37.947 53.32L37.916 53.209V53.16L37.994 53.111 37.947 53.032 37.867 52.95 37.803 53.032 37.819 52.918H37.721L37.576 52.936 37.738 53.063 37.576 53.209 37.689 53.337 37.673 53.191 37.833 53.079 37.802 53.241zM37.818 53.463V53.514L37.898 53.481zM37.946 53.752L38.042 53.85V53.69zM38.059 52.68L37.946 52.727 37.866 52.774 37.784 52.793 37.802 52.858 37.929 52.807zM37.929 52.63L37.851 52.611V52.695zM38.091 52.611L38.107 52.71 38.218 52.68 38.06 52.534 37.978 52.438 37.962 52.309 37.978 52.18 37.818 52.231 37.898 52.421zM37.818 52.02L37.802 52.1H37.898L38.027 52.132 38.06 52.05 37.929 51.988V51.906L37.993 51.81 37.929 51.697 37.882 51.81 37.784 51.842zM37.916 51.411L37.93 51.296 37.852 51.186 37.754 51.264H37.834L37.916 51.491 37.818 51.522 37.802 51.602 37.929 51.585 38.011 51.682 37.993 51.585 38.042 51.489zM38.186 51.875L38.073 51.827 38.155 51.892zM38.172 52.21L38.156 52.291H38.187zM38.059 50.831L38.026 50.861 38.186 51.007 38.155 50.861zM37.833 50.816L37.851 51.008 37.929 50.974 37.915 51.135 37.993 51.103 38.011 50.894zM37.898 50.282L37.834 50.38 37.738 50.397 37.818 50.444 37.898 50.397zM37.883 49.562L37.834 49.48 37.738 49.451 37.802 49.578V49.642zM37.803 49.242L37.752 49.122 37.65 49.12zM37.415 51.552L37.335 51.456V51.537zM37.368 51.729L37.464 51.746H37.593L37.624 51.696 37.464 51.668zM37.319 51.873L37.303 51.971 37.399 51.938 37.415 51.875V51.874zM37.255 52.164L37.288 52.275 37.415 52.246V52.148L37.368 52.049zM37.336 52.386L37.416 52.467 37.576 52.485 37.529 52.454 37.433 52.358zM37.609 52.246L37.738 52.275 37.72 52.131 37.64 51.972 37.706 51.873 37.608 51.826 37.495 51.874 37.433 52.069H37.529L37.447 52.229 37.48 52.291zM37.624 49.595L37.64 49.627 37.706 49.546zM37.48 50.797L37.464 50.893 37.56 50.862 37.625 50.798zM37.593 50.507L37.575 50.381 37.559 50.138 37.446 50.171V50.235L37.495 50.333V50.429zM37.464 50.059L37.433 49.93 37.415 50.026zM37.254 49.705L37.221 49.627 37.143 49.689 37.239 49.751zM37.047 51.297L37.031 51.395 36.935 51.377 36.855 51.315 36.822 51.395 36.935 51.457 37.126 51.439 37.11 51.361 37.272 51.343 37.319 51.247zM37.175 51.648L37.222 51.825 37.273 51.713zM37.046 51.682L37.095 51.78 37.126 51.764zM36.95 51.811L36.966 51.729 36.806 51.746 36.868 51.875 36.966 51.894zM36.21 49.466L36.179 49.384 36.099 49.242 36.163 49.159 36.099 49.177 36.05 49.255 36.034 49.4zM36.147 49.657L36.067 49.641 36.163 49.739zM36.034 48.87H36.227L36.067 48.774zM36.13 48.534L36.068 48.469 36.05 48.581zM36.13 48.983L36.099 49.081 36.179 49.015zM36.275 49.112L36.373 49.063 36.324 48.983 36.195 49.112zM36.854 49.399L36.725 49.368 36.596 49.242 36.5 49.255 36.338 49.177 36.307 49.304H36.467L36.514 49.384 36.403 49.48 36.501 49.61 36.661 49.466 36.757 49.45zM36.772 49.513V49.595L36.821 49.673 36.868 49.577zM36.726 50.269L36.773 50.334 36.806 50.236zM36.581 49.996L36.532 49.9 36.468 49.946zM36.532 50.975H36.563L36.581 50.895zM36.612 49.673L36.403 49.786 36.323 49.724 36.468 49.867 36.532 49.751zM36.227 49.997L36.323 50.06 36.388 50.044zM36.274 50.253L36.372 50.283 36.468 50.253 36.308 50.205zM36.258 50.573L36.338 50.668 36.344 50.682 36.403 50.817 36.501 50.798 36.515 50.682V50.668L36.404 50.652 36.355 50.573zM36.484 51.551L36.453 51.6 36.515 51.696 36.646 51.619zM36.692 50.525L36.676 50.444 36.612 50.428zM36.661 51.667L36.741 51.635H36.661zM36.79 51.361L36.692 51.343 36.661 51.394zM36.901 50.781L36.79 50.798 36.757 50.913zM37.015 51.635L36.997 51.552 36.935 51.585zM37.046 51.199L36.917 51.23 37.03 51.248zM36.917 50.026L36.854 49.945 36.885 49.832H36.772L36.821 50.137zM36.901 49.09A0.7 0.7 0 0 1 36.651 49.012C36.701 49.039 36.809 49.086 36.833 49.086zM36.637 49.006L36.616 48.985 36.648 49.08 36.728 49.096 36.639 49.007zM35.92 49.337L36.018 49.193 35.809 49.271 35.825 49.353 35.905 49.384 35.969 49.467zM35.89 50.863V50.974L35.921 50.943zM35.857 51.585L35.761 51.667 35.841 51.648zM35.745 52.163L35.761 52.26 35.857 52.1zM35.97 48.967L35.89 48.887V49.032zM35.73 50.138L35.712 50.269 35.761 50.138zM35.697 51.009L35.746 51.087 35.779 50.831H35.73zM35.712 53.062L35.794 52.935 35.712 52.917zM35.76 53.225L35.774 53.246 35.87 53.274 35.89 53.127zM35.922 52.275L35.779 52.386 35.857 52.452zM35.969 50.22L35.985 50.348 36.001 50.138 35.92 50.092zM35.938 51.009L36.049 51.118 36.147 51.087 36.163 51.009 35.954 50.991zM36.13 52.18L36.21 52.199 36.163 52.117 36.13 52.1zM36.259 50.188L36.114 50.06 36.05 50.158 36.148 50.138zM36.243 51.167L36.259 51.216 36.468 51.186 36.339 51.104zM36.582 53.16L36.646 53.079 36.548 53.016zM36.71 52.164L36.646 52.037 36.757 52.003H36.855L36.806 51.906 36.693 51.892 36.582 51.954 36.564 52.1 36.597 52.147 36.581 52.246zM36.966 52.083V52.002H36.868zM36.95 52.532L37.11 52.484V52.405L37.03 52.421zM37.046 53.464L37.11 53.595 37.126 53.657 37.175 53.545zM37.19 52.275L37.143 52.116 37.063 52.148 37.094 52.23 37.11 52.308zM37.255 51.973H37.144L37.175 52.071zM37.191 53.048L37.24 52.966 37.191 52.95zM37.274 52.661L37.401 52.695 37.547 52.532 37.447 52.549 37.369 52.518 37.191 52.549zM37.658 52.743L37.707 52.517 37.834 52.406 37.707 52.454 37.576 52.342 37.625 52.422V52.613L37.576 52.679 37.433 52.709 37.4 52.855zM37.335 53.545L37.368 53.624 37.464 53.609zM37.52 54.436L37.551 55.537 42.221 58.824 46.119 57.999 46.144 57.129zM39.794 51.905L39.776 51.97 39.905 52.019 39.872 51.937zM39.843 51.729L39.81 51.635V51.729zM40.13 51.087L40.05 51.024 40.019 51.136 40.081 51.216V51.118zM40.067 53.32L40.081 53.417 40.163 53.436zM40.099 50.702L40.097 50.681 40.081 50.558H39.985L40.081 50.681zM39.923 51.505L40.034 51.57V51.439zM39.89 53.418L39.872 53.322 39.794 53.385 39.937 53.562zM40.308 53.562L40.404 53.594 40.355 53.515zM40.324 53.385L40.373 53.321 40.275 53.289zM40.404 53.032L40.308 52.966 40.339 53.048zM40.308 52.371L40.324 52.307 40.228 52.324zM40.372 51.65L40.308 51.551 40.21 51.584 40.163 51.666 40.275 51.713zM40.501 52.646L40.517 52.597 40.419 52.629zM40.969 51.281L40.985 51.023 40.903 51.119 40.887 51.2 40.949 51.314 41.031 51.343 41.093 51.295zM40.933 53.818L40.902 54.046 41.015 53.802 40.933 53.753 40.853 53.706zM40.949 52.132L40.853 52.115 40.968 52.26H41.064zM41.046 51.411L40.968 51.423V51.456zM40.869 52.357L40.853 52.453 40.949 52.307 40.806 52.245zM40.868 52.695L40.901 52.804 40.997 52.82zM40.853 51.826L40.806 51.745 40.726 51.792zM40.806 51.505V51.395L40.773 51.505zM40.806 51.312L40.788 51.199 40.708 51.15 40.757 51.28zM40.692 51.572L40.708 51.697 40.726 51.601zM40.726 52.934L40.822 53.016 40.773 52.903zM40.806 53.447L40.886 53.4 40.806 53.417zM41.063 53.53L40.948 53.545 40.997 53.609zM41.079 53.079L41.015 52.999 40.984 53.048zM40.932 50.798L40.827 50.682 40.806 50.655 40.814 50.682 40.837 50.751zM40.852 50.171L40.725 50.06 40.645 50.092V50.22L40.788 50.188zM40.548 50.848L40.661 50.878 40.646 50.798zM40.645 53.802H40.676L40.692 53.723zM40.532 51.038L40.548 51.136 40.646 51.199V51.087zM40.532 52.453L40.548 52.532 40.612 52.468zM40.581 53.753L40.533 53.834 40.597 53.852zM41.125 50.781L41.141 50.878 41.319 50.718zM41.239 50.398L41.243 50.367 41.161 50.308zM41.479 53.945L41.43 54.046 41.51 54.011 41.448 53.866 41.384 53.964zM41.4 53.271L41.48 53.209 41.384 53.145zM41.511 52.678L41.577 52.598 41.464 52.533 41.48 52.631zM41.479 51.971L41.399 51.891 41.448 51.987zM41.334 52.341L41.43 52.387 41.448 52.18zM41.384 51.874L41.351 51.777 41.335 51.874zM41.351 51.009L41.32 50.913 41.273 51.087zM41.272 53.125L41.239 53.354 41.319 53.289zM41.16 51.15V51.248L41.224 51.167zM46.724 56.658C46.863 56.077 47.05 55.301 47.187 54.707L44.787 51.441H42.865A1 1 0 0 1 42.685 51.384L41.687 50.681 41.621 50.631V50.681L41.623 51.343H41.432V51.439L41.512 51.474 41.594 51.455 41.6 51.601H41.512L41.545 51.713H41.578L41.601 51.63 41.624 52.179 41.608 52.259 41.624 52.42 41.62 53.651 41.624 53.833 41.622 54.19 41.528 54.184 41.622 54.227 41.624 54.7 41.622 55.067zM47.364 53.896L46.579 51.111H45.737C45.745 51.241 45.679 51.376 45.542 51.423zM47.727 22.56L48.135 23.748C48.182 23.886 48.33 23.998 48.467 23.998H51.531A0.39 0.39 0 0 0 51.867 23.748L52.275 22.56C52.32 22.423 52.248 22.31 52.109 22.31H47.887C47.753 22.31 47.681 22.423 47.727 22.56M48.135 21.523A0.38 0.38 0 0 0 48.467 21.77H51.531C51.67 21.77 51.818 21.66 51.867 21.523L52.275 20.335C52.32 20.197 52.248 20.085 52.109 20.085H47.887C47.752 20.085 47.68 20.197 47.726 20.335zM47.727 24.785L48.135 25.973C48.182 26.109 48.33 26.222 48.467 26.222H51.531C51.67 26.222 51.818 26.109 51.867 25.973L52.275 24.785C52.32 24.647 52.248 24.537 52.109 24.537H47.887C47.753 24.537 47.681 24.647 47.727 24.785M47.727 27.011L48.135 28.199A0.38 0.38 0 0 0 48.467 28.447H51.531A0.38 0.38 0 0 0 51.867 28.199L52.275 27.011C52.32 26.872 52.248 26.761 52.109 26.761H47.887C47.753 26.761 47.681 26.872 47.727 27.011M47.727 29.235L48.135 30.425A0.38 0.38 0 0 0 48.467 30.671H51.531C51.67 30.671 51.818 30.561 51.867 30.425L52.275 29.235C52.32 29.099 52.248 28.987 52.109 28.987H47.887C47.753 28.987 47.681 29.1 47.727 29.235M56.52 29.135L57.313 35.534 58.542 30.041zM43.089 37.325L43.173 37.7 43.558 34.541C43.88 33.062 44.468 32.134 45.632 31.874 45.915 31.711 46.243 31.608 46.62 31.565L46.626 25.753H46.224V24.232H46.63V23.301C46.632 23.054 47.003 23.054 47.003 23.301L46.993 31.55H47.296V19.595C47.296 19.46 47.405 19.347 47.544 19.347H52.482C52.621 19.347 52.73 19.46 52.73 19.595V31.55H53.004C53.541 31.55 53.991 31.657 54.366 31.874 55.528 32.134 56.114 33.062 56.44 34.541L56.825 37.708 56.91 37.331 54.692 19.458A6 6 0 0 0 54.584 19.03C54.207 17.733 53.588 17.233 52.519 17.233H47.481C46.315 17.233 45.666 17.829 45.305 19.46zM41.46 30.042L42.687 35.529 43.478 29.137zM35.663 34.155L37.302 35.311 37.159 29.283 36.929 29.375 36.13 30.343V34.155zM2.198 11.589L42.319 44.18 44.839 45.131 44.247 43.098C43.97 43.484 43.046 43.888 42.882 43.991 42.531 44.211 42.202 43.684 42.552 43.464L43.669 42.767 42.493 37.511A0.3 0.3 0 0 1 42.46 37.365L40.132 26.95 33.655 21.976 35.417 25.835 37.687 28.429A1 1 0 0 1 37.763 28.625L37.983 37.821C37.993 38.236 37.372 38.253 37.362 37.837L37.319 36.085 2.708 11.599zM30.863 36.44C30.924 36.49 30.987 36.682 30.967 36.756L29.977 40.722 37.424 48.144 40.149 48.25C40.165 48.25 40.303 48.297 40.317 48.307L43.411 50.495H46.401L45.514 47.44 44.868 47.178 42.688 46.282 39.6 46.854 39.043 47.177 37.963 47.799C37.75 47.925 37.562 47.604 37.779 47.479L42.013 45.026 45.158 46.224 45.056 45.877 42.052 44.744 41.966 44.694 1.366 11.711 1.169 11.944zM29.806 53.604V52.735H31.894V52.046A4.13 4.13 0 0 1 29.423 52.089V60.288C29.423 60.425 29.532 60.537 29.671 60.537H31.644A0.25 0.25 0 0 0 31.894 60.288V60.028H29.806V59.16H31.894V58.742H29.806V57.875H31.894V57.458H29.806V56.59H31.894V56.174H29.806V55.305H31.894V54.891H29.806V54.022H31.894V53.604zM32.586 50.678A3.51 3.51 0 0 0 34.049 47.178V47.176A3.4 3.4 0 0 0 33.631 46.03L32.344 44.728A3.7 3.7 0 0 0 31.012 44.302H30.164A2 2 0 0 0 29.904 44.342 3.09 3.09 0 0 1 32.601 46.696L32.24 46.785A2.727 2.727 0 1 0 30.406 50.024L30.519 50.378A3.1 3.1 0 0 1 27.851 49.993C28.064 50.256 28.31 50.487 28.587 50.676V50.683A3.53 3.53 0 0 0 32.586 50.678M28.368 44.303H27.089V45.585C27.415 45.065 27.853 44.628 28.368 44.303M30.213 37.211L30.318 36.793 16.814 25.656 16.554 25.973zM26.761 40.233L29.552 39.856 30.046 37.88 29.286 37.253C28.261 38.056 27.321 39.043 26.761 40.233M22.408 54.738H23.709V51.06L23.797 50.681 25.887 41.447C25.899 41.392 25.988 41.308 26.047 41.304L28.897 40.954C28.913 40.828 28.948 40.687 28.985 40.558L25.735 40.998C24.364 42.749 23.337 44.853 22.751 47.179H22.749A18.7 18.7 0 0 0 22.183 51.801C22.183 52.805 22.261 53.788 22.408 54.738M23.314 55.109H22.474C22.666 56.187 22.949 57.226 23.314 58.21zM36.35 81.105A98 98 0 0 1 34.803 71.698C34.426 68.409 34.36 66.282 34.352 66.009L32.684 58.27 32.676 52.698C32.676 52.464 32.853 52.335 33.078 52.405L35.601 53.19 35.603 52.036V51.83L35.683 51.924 35.699 51.843 35.603 51.739V50.68L35.601 49.5 35.603 49.416 35.601 48.866V47.974L35.6 47.973 34.799 47.176 34.654 47.03 34.677 47.176A4.12 4.12 0 0 1 33.544 50.678V50.68C33.204 51.024 32.801 51.315 32.356 51.526V62.953L32.522 63.039C32.891 63.227 32.608 63.778 32.239 63.591L28.139 61.491A0.5 0.5 0 0 1 27.971 61.214V53.033L26.559 51.619A0.7 0.7 0 0 1 26.467 51.399V48.139A4 4 0 0 1 26.467 47.442V43.992C26.467 43.825 26.612 43.681 26.778 43.681H30.128A4 4 0 0 1 31.048 43.681H31.29L28.966 41.365 26.222 41.658 24.175 50.68 24.083 51.082V51.57H24.405V53.088H24.083V54.924C24.083 55.024 23.995 55.11 23.897 55.11H23.688V59.132C24.946 62.009 26.921 64.38 29.329 65.93L29.649 66.13 29.776 66.204C29.969 66.316 30.165 66.427 30.364 66.529 31.089 66.915 31.825 67.222 32.577 67.461 32.971 67.585 32.786 68.178 32.391 68.052A13.5 13.5 0 0 1 30.645 67.367L31.487 71.7 32.151 75.124C33.001 77.243 34.667 79.595 36.35 81.105M39.017 66.211L38.39 64.525 36.109 58.574 36.089 58.466V53.994L33.294 53.125V58.172L34.962 65.91C34.966 65.943 35.017 68.158 35.423 71.697V71.701A97 97 0 0 0 37.126 81.763H39.017zM40.697 76.816L39.685 74.699 39.667 74.616V65.577L37.19 59.052 37.169 58.448 36.71 58.33V58.407L38.97 64.305 39.618 66.046 39.638 66.152V75.792H40.083C40.128 75.792 40.231 75.855 40.251 75.896zM45.522 79.677L46.372 76.196H43.097C43.022 76.196 42.929 76.119 42.913 76.044L42.112 71.7 40.723 64.178A0.183 0.183 0 0 1 40.879 63.962L44.346 63.452 44.303 63.167 47.121 62.755 47.996 60.886 46.334 59.325S41.951 59.685 41.699 59.614C41.525 59.564 39.041 58.926 37.537 58.542L37.549 58.95 40.028 65.476 40.034 71.7 40.038 74.575 42.71 80.171H45.626L45.526 79.839zM53.854 79.743L51.893 71.7 51.44 69.847H48.559L48.109 71.7 46.148 79.743 47.728 85.093H52.273zM59.962 74.576L59.975 65.478 62.452 58.951 62.464 58.543A627 627 0 0 0 58.302 59.615C58.048 59.687 53.669 59.326 53.669 59.326L52.003 60.887 52.88 62.756 55.698 63.168 55.655 63.453 59.122 63.963A0.184 0.184 0 0 1 59.278 64.179L57.888 71.701 57.085 76.044C57.07 76.119 56.977 76.197 56.902 76.197H53.626L54.477 79.677C54.479 79.687 54.475 79.828 54.472 79.838L54.372 80.17H57.292zM53.883 57.999L57.781 58.824 62.451 55.537 62.482 54.437 53.859 57.127zM61.031 64.305L63.291 58.407V58.33L62.832 58.448 62.811 59.052 60.334 65.577V74.616L60.316 74.699 59.305 76.816 59.748 75.896C59.77 75.855 59.869 75.792 59.916 75.792H60.36V66.152L60.381 66.046zM64.576 71.695C64.984 68.155 65.033 65.941 65.037 65.909L66.705 58.171V53.124L63.91 53.993V58.465L63.889 58.573 61.61 64.523 60.983 66.21V81.763H62.875A97 97 0 0 0 64.576 71.695M76.314 55.107H76.107A0.19 0.19 0 0 1 75.919 54.921V53.085H75.6V51.567H75.92V51.08L75.826 50.678 73.781 41.656 71.037 41.363 68.713 43.679H68.955A4 4 0 0 1 69.877 43.679H73.225A0.32 0.32 0 0 1 73.537 43.991V47.441A4 4 0 0 1 73.537 48.138V51.399A0.7 0.7 0 0 1 73.444 51.619L72.032 53.033V61.214A0.48 0.48 0 0 1 71.862 61.491L67.764 63.591C67.395 63.779 67.114 63.228 67.481 63.039L67.645 62.953V51.527A4.13 4.13 0 0 1 65.283 47.787C65.283 47.578 65.297 47.377 65.326 47.178V47.176A2 2 0 0 1 65.351 47.03L65.205 47.176 63.377 48.996A0.8 0.8 0 0 1 63.17 49.086L60.416 49.193 58.313 50.679 57.315 51.383A1 1 0 0 1 57.135 51.441H55.215L52.811 54.708C52.95 55.305 53.133 56.076 53.274 56.659L66.922 52.405C67.149 52.335 67.326 52.464 67.326 52.698L67.32 58.269 65.65 66.009C65.644 66.283 65.576 68.41 65.201 71.695V71.7A98 98 0 0 1 63.652 81.107C65.329 79.594 66.997 77.243 67.847 75.124L68.51 71.7 69.353 67.367C68.785 67.636 68.203 67.866 67.607 68.052 67.211 68.178 67.023 67.585 67.419 67.461A13 13 0 0 0 69.636 66.529C69.833 66.427 70.03 66.316 70.223 66.204L70.348 66.13 70.669 65.93C73.078 64.38 75.054 62.009 76.311 59.132H76.313zM67.4 46.698A3.09 3.09 0 0 1 70.094 44.344 2 2 0 0 0 69.836 44.304H68.987A3.7 3.7 0 0 0 67.655 44.73L66.369 46.032A3.46 3.46 0 0 0 65.897 47.789C65.897 48.989 66.5 50.045 67.414 50.68V50.682A3.52 3.52 0 0 0 71.412 50.676H71.417C71.692 50.484 71.938 50.254 72.147 49.993A3.08 3.08 0 0 1 69.481 50.378L69.595 50.024A2.726 2.726 0 0 0 73.126 47.176 2.73 2.73 0 0 0 70.411 44.697 2.724 2.724 0 0 0 67.761 46.785zM72.911 45.585V44.303H71.632C72.148 44.628 72.583 45.065 72.911 45.585M70.193 59.162V60.029H68.109V60.289C68.109 60.426 68.217 60.538 68.357 60.538H70.332A0.25 0.25 0 0 0 70.578 60.289V52.09A4.1 4.1 0 0 1 68.109 52.047V52.736H70.193V53.605H68.109V54.021H70.193V54.89H68.109V55.306H70.193V56.174H68.109V56.59H70.193V57.458H68.109V57.875H70.193V58.742H68.109V59.161zM77.529 55.109H76.685V58.21C77.052 57.227 77.337 56.188 77.529 55.109M71.013 40.558C71.05 40.686 71.085 40.827 71.102 40.954L73.954 41.304C74.009 41.308 74.1 41.392 74.114 41.447L76.204 50.681 76.29 51.06V54.738H77.591A19 19 0 0 0 77.818 51.801 18.8 18.8 0 0 0 77.253 47.179V47.177C76.665 44.852 75.636 42.749 74.27 40.998zM70.716 37.252L69.956 37.879 70.449 39.855 73.238 40.232C72.679 39.043 71.738 38.056 70.716 37.252M83.445 25.972L83.185 25.655 69.684 36.792 69.788 37.21zM98.832 11.942L98.637 11.709 58.035 44.692 57.949 44.742 54.943 45.875 54.84 46.222 57.986 45.024 62.224 47.477C62.437 47.602 62.25 47.923 62.037 47.797L60.959 47.175 60.401 46.852 57.309 46.28 55.131 47.176 54.483 47.44 53.596 50.493H56.588L59.682 48.305A1 1 0 0 1 59.85 48.248L62.575 48.142 70.022 40.72 69.032 36.754A0.5 0.5 0 0 1 69.136 36.438zM49.895 39.582V38.085C49.895 37.966 50.083 37.87 50.317 37.87S50.739 37.966 50.739 38.085V39.582C50.739 39.696 50.551 39.792 50.317 39.792 50.081 39.792 49.895 39.696 49.895 39.582M50.222 39.45C50.222 39.475 50.265 39.497 50.317 39.497 50.368 39.497 50.411 39.474 50.411 39.45V38.212C50.411 38.187 50.368 38.167 50.317 38.167S50.222 38.187 50.222 38.212zM49.288 39.792C49.517 39.792 49.706 39.696 49.706 39.582V39.285C49.706 39.264 49.636 39.245 49.546 39.245S49.382 39.265 49.382 39.285V39.448C49.382 39.469 49.339 39.493 49.288 39.493 49.234 39.493 49.193 39.471 49.193 39.448V37.927C49.193 37.906 49.122 37.888 49.029 37.888 48.942 37.888 48.865 37.906 48.865 37.927V39.582C48.866 39.696 49.054 39.792 49.288 39.792M64.538 65.896L61.431 65.857C61.181 65.855 61.179 66.228 61.427 66.23L64.533 66.269C64.781 66.273 64.786 65.9 64.538 65.896M35.681 58.352H33.831C33.583 58.352 33.583 58.723 33.831 58.723H35.681C35.929 58.723 35.929 58.352 35.681 58.352M32.314 47.485A2.6 2.6 0 0 1 32.148 48.35L32.498 48.48C32.61 48.173 32.679 47.841 32.687 47.493zM67.503 48.48L67.854 48.35A2.6 2.6 0 0 1 67.688 47.485L67.315 47.493C67.32 47.841 67.39 48.173 67.503 48.48M51.622 84.225H48.376L47.046 79.723 47.941 76.055C48 75.813 47.638 75.725 47.58 75.966L46.674 79.684 46.676 79.781 48.059 84.465C48.077 84.525 48.176 84.597 48.239 84.597H51.762C51.824 84.597 51.922 84.525 51.94 84.465L53.327 79.781 53.33 79.684 52.422 75.966C52.364 75.725 52.002 75.813 52.064 76.055L52.951 79.723zM29.587 49.739A2.31 2.31 0 0 1 27.287 47.177 2.314 2.314 0 0 1 31.887 47.177H31.512A2 2 0 0 0 31.475 46.972L31.37 47.115 31.405 47.177 31.528 47.386A2 2 0 0 0 31.512 47.179L31.887 47.177A2.314 2.314 0 0 1 29.587 49.739M31.507 47.712L31.37 47.951 31.427 48.047C31.462 47.938 31.491 47.827 31.507 47.712M31.251 47.182H30.847L30.646 47.532 30.847 47.882H31.249L31.452 47.532zM30.123 47.464H30.525L30.695 47.177 30.728 47.116 30.527 46.766H30.123L29.922 47.116 29.957 47.177zM29.802 47.185H29.398L29.197 47.535 29.398 47.885H29.8L30.005 47.535zM30.727 46.279L30.526 45.928H30.122L29.921 46.279 30.122 46.628H30.524zM29.802 46.348H29.398L29.197 46.697 29.398 47.047H29.8L30.005 46.697zM29.28 46.281L29.077 45.932H28.673L28.472 46.281 28.673 46.63H29.075zM28.673 46.768L28.472 47.118 28.505 47.177 28.673 47.466H29.075L29.245 47.177 29.28 47.118 29.077 46.768zM28.352 47.187H27.948L27.747 47.537 27.948 47.887H28.352L28.553 47.537zM28.472 47.955L28.673 48.302H29.075L29.28 47.955 29.077 47.605H28.673zM29.197 48.372L29.398 48.721H29.8L30.005 48.372 29.802 48.021H29.398zM30.123 48.3H30.525L30.727 47.951 30.526 47.603H30.122L29.921 47.951zM31.05 46.346H30.847L30.646 46.695 30.847 47.045H31.249L31.413 46.763A2 2 0 0 0 31.202 46.346zM30.671 45.814L30.847 46.21H31.101A2 2 0 0 0 30.671 45.814M29.967 45.521L30.123 45.793H30.525L30.556 45.741A1.9 1.9 0 0 0 29.967 45.521M29.398 45.512L29.197 45.863 29.398 46.211H29.8L30.005 45.863 29.802 45.512zM28.638 45.731L28.874 45.793H29.075L29.239 45.516A1.9 1.9 0 0 0 28.638 45.731M28.083 46.199L28.353 46.213 28.554 45.867 28.519 45.806A2 2 0 0 0 28.083 46.199M27.771 46.742L27.949 47.05H28.353L28.554 46.701 28.353 46.349H27.972A2 2 0 0 0 27.771 46.742M27.664 47.177C27.654 47.257 27.648 47.339 27.648 47.426L27.798 47.177 27.829 47.12 27.714 46.917A2 2 0 0 0 27.663 47.173L27.388 47.177zM27.759 48.077L27.829 47.957 27.661 47.665C27.681 47.808 27.712 47.945 27.759 48.077M28.144 48.72H28.353L28.553 48.371 28.352 48.022H27.948L27.825 48.238C27.907 48.415 28.015 48.578 28.144 48.72M28.387 48.949L28.352 48.859H28.282zM29.075 49.139L29.28 48.79 29.077 48.442H28.673L28.472 48.79 28.673 49.139zM30.005 49.208L29.802 48.857H29.398L29.197 49.208 29.273 49.34C29.376 49.358 29.48 49.366 29.589 49.366 29.704 49.366 29.82 49.357 29.931 49.336zM30.727 48.79L30.526 48.438H30.122L29.921 48.79 30.122 49.137H30.503zM31.034 48.717C31.169 48.567 31.278 48.397 31.362 48.211L31.251 48.018H30.847L30.646 48.369 30.847 48.718V48.717zM30.573 49.964L30.708 50.312C30.909 50.232 31.103 50.134 31.288 50.016L31.091 49.703C30.923 49.807 30.751 49.896 30.573 49.964M31.425 49.432L31.679 49.704C31.886 49.509 32.07 49.288 32.222 49.041L31.904 48.848A2.8 2.8 0 0 1 31.425 49.432M35.466 66.27L38.573 66.231C38.823 66.229 38.819 65.856 38.571 65.858L35.462 65.897C35.214 65.9 35.218 66.273 35.466 66.27M38.183 50.348L38.191 50.397H38.202zM68.097 47.426C68.097 47.341 68.104 47.259 68.114 47.177A2.312 2.312 0 0 1 72.726 47.426 2.313 2.313 0 0 1 70.414 49.739 2.317 2.317 0 0 1 68.097 47.426M69.879 49.137L70.078 48.79 69.879 48.438H69.473L69.27 48.79 69.499 49.137zM70.199 48.02L69.998 48.371 70.201 48.72H70.603L70.805 48.372 70.603 48.021H70.4V48.02zM70.201 47.885H70.603L70.805 47.535 70.603 47.185H70.199L69.998 47.535zM70.925 48.302H71.324L71.527 47.955 71.324 47.605H70.923L70.722 47.955zM71.646 47.886H72.05L72.251 47.536 72.05 47.186H71.647L71.446 47.536zM71.527 47.118L71.324 46.768H70.923L70.722 47.118 70.753 47.177 70.925 47.466H71.324L71.495 47.177zM71.324 46.63L71.527 46.281 71.324 45.932H70.923L70.722 46.281 70.925 46.63zM70.604 46.348H70.199L69.998 46.697 70.201 47.047H70.603L70.805 46.697zM70.079 46.279L69.88 45.928H69.475L69.272 46.279 69.475 46.628H69.88zM69.475 46.766L69.272 47.116 69.309 47.177 69.475 47.464H69.88L70.046 47.177 70.079 47.116 69.88 46.766zM69.152 47.183H68.747L68.548 47.533 68.749 47.883H69.152L69.353 47.533zM69.271 47.951L69.474 48.3H69.879L70.078 47.952 69.879 47.604H69.474zM70.806 49.208L70.604 48.857H70.199L69.998 49.208 70.07 49.336A2 2 0 0 0 70.728 49.34zM71.527 48.79L71.324 48.442H70.923L70.722 48.79 70.925 49.139H71.324zM72.177 48.238L72.052 48.022H71.649L71.448 48.371 71.649 48.72H71.856C71.986 48.578 72.093 48.415 72.177 48.238M72.339 47.665L72.171 47.957 72.238 48.077C72.286 47.945 72.32 47.808 72.339 47.665M72.287 46.917L72.172 47.12 72.203 47.177 72.353 47.426A2.3 2.3 0 0 0 72.287 46.917M71.85 46.348H71.647L71.445 46.7 71.648 47.049H72.051L72.23 46.741A2.2 2.2 0 0 0 72.029 46.348zM71.479 45.806L71.647 46.212 71.918 46.198A1.9 1.9 0 0 0 71.479 45.806M70.761 45.516L70.925 45.793H71.124L71.361 45.731A1.9 1.9 0 0 0 70.761 45.516M70.199 45.511L69.998 45.862 70.201 46.21H70.603L70.805 45.863 70.603 45.512H70.4V45.511zM69.445 45.741L69.676 45.793H69.879L70.032 45.521A1.9 1.9 0 0 0 69.445 45.741M68.898 46.21H69.152L69.329 45.813C69.167 45.923 69.023 46.058 68.898 46.21M68.587 46.764L68.749 47.046H69.152L69.353 46.696 69.152 46.347H68.8A1.7 1.7 0 0 0 68.587 46.764M68.471 47.386L68.594 47.177 68.629 47.115 68.524 46.972A2 2 0 0 0 68.489 47.179H68.487C68.48 47.243 68.477 47.312 68.471 47.386M68.63 47.951L68.492 47.712C68.509 47.827 68.538 47.939 68.572 48.047zM68.637 48.213C68.721 48.399 68.832 48.57 68.965 48.719H69.153L69.354 48.37 69.153 48.019H68.748zM64.318 58.723H66.167C66.417 58.723 66.417 58.352 66.167 58.352H64.318C64.07 58.352 64.07 58.723 64.318 58.723M68.32 49.704L68.576 49.432A2.8 2.8 0 0 1 68.097 48.848L67.782 49.041C67.931 49.288 68.115 49.509 68.32 49.704M68.71 50.016C68.898 50.134 69.091 50.232 69.292 50.312L69.429 49.964A3 3 0 0 1 68.908 49.702zM38.179 50.05L38.187 50.06 38.167 49.904z" data-fill-palette-color="quaternary"></path></svg></g></svg></g><g id="text-0"><path d="M8.602 96.985v0c1.688 2.726 3.559 4.929 5.614 6.61v0l0.013-0.037c1.186-3.311 1.874-5.211 2.063-5.7 0.187-0.483 0.267-0.754 0.239-0.813-0.032-0.068-0.078-0.127-0.138-0.176v0c-3.081-0.646-5.192-1.039-6.333-1.18-1.147-0.143-1.763-0.096-1.848 0.142-0.087 0.244 0.043 0.628 0.39 1.154zM24.302 106.193v0l0.141-0.837c0.085-0.237 0.259-0.309 0.521-0.215v0c0.831 0.298 1.473 0.718 1.927 1.261 0.45 0.535 0.704 1.094 0.762 1.679v0c0.115 0.958 0.071 1.72-0.133 2.289v0c-0.394 1.099-1.098 1.777-2.113 2.034-1.019 0.248-2.357 0.076-4.012-0.517-1.655-0.593-3.645-1.817-5.969-3.672v0l-0.745 2.081c-0.094 0.262-0.272 0.347-0.535 0.252-0.262-0.094-0.611-0.448-1.046-1.062-0.442-0.616-0.581-1.153-0.418-1.609v0l0.574-1.602c-3.154-3.04-5.693-6.194-7.616-9.463v0c-0.497-0.855-0.903-1.828-1.216-2.92-0.307-1.09-0.376-1.872-0.206-2.347 0.172-0.481 0.516-0.763 1.032-0.846v0c1.221-0.26 5.139 0.322 11.755 1.748v0c2.818 0.692 5.799 1.204 8.944 1.534 3.149 0.339 5.068 0.293 5.758-0.137v0c0.145-0.11 0.29-0.139 0.433-0.088v0c0.362 0.13 0.515 0.755 0.459 1.877-0.052 1.13-0.174 1.961-0.364 2.492-0.192 0.537-0.406 0.926-0.64 1.166-0.234 0.24-0.435 0.369-0.603 0.387v0c-1.085 0.098-3.457-0.266-7.116-1.091v0l-1.751-0.394c-1.154-0.301-2.035-0.507-2.644-0.619v0l-0.268 0.189-2.713 7.454c1.115 0.724 2.126 1.248 3.031 1.572 0.906 0.324 1.579 0.53 2.02 0.618 0.432 0.091 0.95 0.055 1.552-0.11 0.593-0.161 0.993-0.529 1.199-1.104z" fill="#f70707" data-fill-palette-color="primary"></path><path d="M71.032 34.361v0l-2.595-3.699c-2.54-3.689-4.348-6.053-5.426-7.092v0c-0.145-0.117-0.246-0.217-0.303-0.299v0c-0.245-0.355-0.098-0.903 0.439-1.644 0.532-0.737 1.008-1.25 1.43-1.539 0.415-0.286 0.71-0.303 0.882-0.052v0c0.015 0.022 0.072 0.152 0.172 0.389v0c1.289 2.891 3.858 7.131 7.707 12.723v0c2.626 3.815 4.732 6.405 6.317 7.771v0c0.266 0.211 0.407 0.328 0.422 0.35v0c0.301 0.437 0.071 1.127-0.69 2.07-0.77 0.941-1.352 1.547-1.745 1.817v0c-0.629 0.433-1.157 0.583-1.586 0.452v0c-0.862-0.269-2.738-1.397-5.63-3.386-2.886-1.993-5.521-3.889-7.904-5.688v0l-3.598-2.682c-0.114-0.083-0.203-0.102-0.269-0.057v0c-0.082 0.056-0.124 0.194-0.126 0.413v0c1.232 2.012 2.516 3.988 3.851 5.928 1.336 1.94 2.377 3.418 3.125 4.434 0.746 1.025 1.327 1.793 1.743 2.304 0.416 0.511 0.754 0.915 1.015 1.211 0.269 0.298 0.47 0.506 0.6 0.626 0.129 0.129 0.214 0.223 0.256 0.283v0c0.275 0.399 0.146 0.943-0.387 1.632-0.538 0.693-1.083 1.229-1.636 1.609-0.557 0.384-0.923 0.45-1.095 0.199v0c-0.087-0.126-0.161-0.304-0.224-0.536-0.068-0.227-0.16-0.518-0.275-0.873v0c-0.293-0.87-1.062-2.298-2.308-4.284-1.246-1.986-2.72-4.214-4.421-6.684-1.701-2.47-2.969-4.248-3.804-5.332v0c-1.368-1.765-2.403-2.865-3.105-3.3v0c-0.105-0.024-0.194-0.088-0.265-0.192v0c-0.23-0.333 0.1-1.036 0.99-2.107 0.89-1.072 1.643-1.82 2.261-2.245 0.612-0.421 0.978-0.657 1.096-0.707v0c0.28-0.225 0.572-0.181 0.877 0.133v0c2.112 1.769 4.734 3.758 7.866 5.968 3.132 2.21 5.666 3.801 7.6 4.773v0c0.175 0.032 0.293 0.028 0.353-0.014v0c0.104-0.071-0.433-0.963-1.61-2.673z" fill="#f70707" data-fill-palette-color="primary"></path><path d="M139.304 10.237v0c0.176 7.848 0.467 12.981 0.872 15.401v0c0.014 0.604-0.556 1.117-1.708 1.542-1.159 0.418-2.116 0.635-2.872 0.651-0.763 0.017-1.147-0.09-1.152-0.322v0c-0.003-0.153 0.032-0.343 0.107-0.57v0c0.454-1.072 0.597-5.353 0.429-12.842v0c-0.159-7.085-0.549-11.015-1.17-11.791v0l-0.165-0.226c-0.149-0.123-0.225-0.277-0.229-0.462-0.004-0.192 0.131-0.355 0.407-0.487v0c0.373-0.234 1.045-0.478 2.015-0.732 0.97-0.247 1.847-0.38 2.629-0.398 0.783-0.018 1.178 0.153 1.186 0.511v0l0.003 0.11c-0.246 2.64-0.364 5.845-0.352 9.615z" fill="#f70707" data-fill-palette-color="primary"></path><path d="M202.465 29.356v0l3.843-6.063c0.636-0.948 1.032-1.764 1.189-2.451 0.157-0.686 0.25-1.051 0.279-1.095v0c0.307-0.457 1.253-0.337 2.84 0.36 1.591 0.701 2.759 1.301 3.503 1.8 0.744 0.499 1.028 0.95 0.854 1.352v0c-2.642 6.793-4.28 11.639-4.915 14.538v0c-0.062 0.318-0.035 0.516 0.081 0.594 0.116 0.078 0.28 0.052 0.494-0.076v0c4.071-3.029 7.949-6.128 11.634-9.297v0c0.249-0.192 0.588-0.245 1.017-0.156 0.429 0.088 1.101 0.348 2.018 0.779 0.911 0.428 1.778 0.917 2.598 1.468 0.821 0.551 1.119 0.995 0.893 1.331v0c-0.015 0.022-0.157 0.162-0.426 0.421-0.268 0.268-0.58 0.602-0.936 1.002-0.362 0.396-0.795 0.881-1.3 1.453v0c-1.16 1.323-2.4 2.908-3.719 4.756-1.316 1.842-2.61 3.71-3.882 5.605v0l-2.153 3.35c-1.017 1.515-1.641 2.659-1.871 3.431-0.229 0.781-0.375 1.219-0.438 1.312-0.063 0.094-0.211 0.154-0.445 0.181v0c-1.001 0.087-2.166-0.315-3.494-1.206v0c-0.837-0.562-1.118-1.162-0.842-1.8v0c0.13-0.336 0.411-0.827 0.844-1.471 0.429-0.639 1.814-2.566 4.156-5.781 2.342-3.215 4.017-5.575 5.027-7.079 1.006-1.499 1.423-2.305 1.253-2.42v0c-0.017-0.011-0.028-0.011-0.036 0-0.007 0.011-0.05 0.003-0.127-0.025-0.075-0.019-0.458 0.2-1.147 0.656-0.686 0.451-2.249 1.655-4.691 3.613-2.441 1.958-4.698 3.803-6.772 5.535-2.079 1.729-3.207 2.658-3.382 2.789v0c-0.612 0.412-1.243 0.4-1.894-0.037v0c-0.32-0.214-0.495-0.5-0.527-0.857v0c1.417-3.564 3.203-8.814 5.358-15.751v0l1.041-3.461c0.032-0.131 0.026-0.211-0.019-0.24v0c-0.105-0.07-0.229-0.046-0.373 0.073v0c-1 1.311-2.842 3.966-5.527 7.966-2.688 4.005-4.237 6.634-4.645 7.886v0c-0.009 0.05-0.044 0.119-0.103 0.206v0c-0.296 0.441-0.857 0.527-1.685 0.26-0.822-0.264-1.514-0.584-2.075-0.962-0.556-0.373-0.751-0.684-0.586-0.932v0c0.015-0.022 0.18-0.155 0.496-0.398v0c1.041-0.86 2.292-2.278 3.754-4.253 1.462-1.976 3.075-4.277 4.838-6.906z" fill="#f70707" data-fill-palette-color="primary"></path><path d="M255.276 112.55v0c-1.677 0.572-3.105 0.464-4.286-0.325-1.172-0.785-2.086-2.138-2.742-4.06v0c-1.046-3.065-0.799-5.669 0.741-7.814 1.54-2.145 3.952-3.778 7.236-4.898v0c0.528-0.18 1.302-0.416 2.324-0.709v0l-0.688-2.016c-0.064-0.188-0.024-0.307 0.12-0.357v0c0.408-0.139 0.968-0.102 1.679 0.111 0.717 0.211 1.157 0.555 1.319 1.033v0l0.232 0.678c1.828-0.273 3.522-0.28 5.083-0.02 1.559 0.253 2.829 0.647 3.81 1.181 0.988 0.532 1.858 1.192 2.611 1.98v0c1.222 1.238 2.111 2.673 2.668 4.306 0.555 1.626 0.638 2.734 0.25 3.322v0c-0.197 0.285-0.648 0.547-1.351 0.787-0.71 0.242-1.093 0.278-1.151 0.109v0c-0.009-0.025 0.001-0.151 0.029-0.378v0c0.077-0.72-0.043-1.545-0.361-2.474v0c-0.696-2.041-1.958-3.384-3.783-4.031-1.826-0.646-3.928-0.777-6.307-0.393v0c0.647 1.813 1.501 4.276 2.564 7.391v0c0.081 0.239 0.037 0.387-0.133 0.445v0c-0.383 0.131-0.935 0.105-1.656-0.076-0.715-0.184-1.155-0.517-1.319-1.001v0l-2.109-6.18c-0.295 0.08-0.926 0.285-1.893 0.615-0.973 0.332-1.935 0.853-2.885 1.563-0.943 0.708-1.627 1.663-2.051 2.866-0.42 1.195-0.371 2.549 0.146 4.062 0.514 1.507 1.283 2.661 2.306 3.462v0c0.135 0.087 0.22 0.181 0.254 0.281v0c0.064 0.188-0.155 0.368-0.657 0.54z" fill="#f70707" data-fill-palette-color="primary"></path><path d="M9.621 144.26c0-1.754 1.422-3.177 3.176-3.176 1.754 0 3.177 1.422 3.177 3.176 0 1.754-1.422 3.177-3.177 3.177-1.754 0-3.177-1.422-3.176-3.177z" fill="#f70707" data-fill-palette-color="primary"></path><path d="M260.439 144.26c0-1.754 1.422-3.177 3.177-3.176 1.754 0 3.177 1.422 3.177 3.176 0 1.754-1.422 3.177-3.177 3.177-1.754 0-3.177-1.422-3.177-3.177z" fill="#f70707" data-fill-palette-color="primary"></path></g><g id="text-1"><path d="M32.533 182.906v0c-3.017-1.028-5.846-1.538-8.486-1.531v0l0.013 0.037c1.178 3.292 1.848 5.185 2.01 5.676 0.162 0.492 0.276 0.751 0.341 0.777 0.062 0.034 0.134 0.051 0.218 0.049v0c2.766-1.448 4.635-2.479 5.606-3.094 0.971-0.615 1.414-1.041 1.329-1.279-0.085-0.237-0.428-0.449-1.031-0.635zM14.657 185.738v0l0.418 0.727c0.085 0.237-0.004 0.403-0.266 0.497v0c-0.825 0.295-1.581 0.379-2.267 0.251-0.687-0.128-1.239-0.399-1.655-0.814v0c-0.694-0.661-1.143-1.275-1.347-1.844v0c-0.389-1.087-0.272-2.052 0.35-2.894 0.624-0.836 1.761-1.549 3.41-2.14 1.643-0.588 3.941-0.902 6.893-0.943v0l-0.738-2.062c-0.094-0.262-0.01-0.441 0.253-0.534 0.262-0.094 0.757-0.042 1.483 0.156 0.724 0.192 1.167 0.513 1.327 0.963v0l0.574 1.603c4.346 0.348 8.29 1.171 11.834 2.468v0c0.925 0.339 1.847 0.83 2.768 1.473 0.929 0.647 1.479 1.208 1.648 1.683 0.168 0.469 0.081 0.898-0.258 1.287v0c-0.778 0.976-4.158 3.003-10.14 6.08v0c-2.605 1.249-5.222 2.738-7.852 4.468-2.63 1.73-4.076 2.977-4.339 3.74v0c-0.042 0.177-0.135 0.292-0.279 0.343v0c-0.356 0.127-0.867-0.257-1.533-1.154-0.668-0.903-1.097-1.619-1.287-2.15-0.19-0.531-0.271-0.964-0.242-1.298 0.024-0.326 0.095-0.552 0.212-0.679v0c0.773-0.756 2.826-1.969 6.16-3.641v0l1.591-0.812c1.085-0.494 1.894-0.892 2.426-1.196v0l0.091-0.307-2.63-7.442c-1.309 0.144-2.413 0.377-3.312 0.699-0.9 0.322-1.548 0.589-1.944 0.801-0.392 0.204-0.767 0.556-1.123 1.057-0.354 0.507-0.43 1.045-0.226 1.614z" fill="#f70707" data-fill-palette-color="primary"></path><path d="M74.238 249.383v0l2.514-3.719c2.53-3.672 4.085-6.194 4.668-7.565v0c0.054-0.172 0.111-0.302 0.171-0.389v0c0.241-0.35 0.8-0.407 1.679-0.174 0.874 0.24 1.519 0.503 1.934 0.789 0.415 0.286 0.538 0.552 0.369 0.798v0c-0.015 0.022-0.116 0.122-0.303 0.299v0c-2.233 2.224-5.264 6.115-9.092 11.672v0c-2.612 3.792-4.272 6.669-4.979 8.632v0c-0.102 0.324-0.161 0.497-0.177 0.519v0c-0.297 0.432-1.022 0.46-2.174 0.086-1.143-0.376-1.911-0.7-2.304-0.971v0c-0.623-0.429-0.949-0.868-0.979-1.315v0c-0.055-0.892 0.331-3.035 1.155-6.432 0.821-3.391 1.649-6.511 2.484-9.36v0l1.211-4.302c0.033-0.13 0.017-0.218-0.049-0.263v0c-0.082-0.056-0.224-0.049-0.425 0.021v0c-1.433 1.857-2.813 3.75-4.142 5.679-1.329 1.929-2.334 3.424-3.017 4.485-0.682 1.061-1.189 1.872-1.519 2.434-0.329 0.571-0.585 1.031-0.77 1.38-0.175 0.347-0.296 0.606-0.365 0.775-0.074 0.166-0.132 0.28-0.173 0.34v0c-0.271 0.393-0.823 0.464-1.657 0.212-0.834-0.252-1.526-0.568-2.079-0.948-0.546-0.376-0.733-0.69-0.559-0.942v0c0.087-0.126 0.224-0.261 0.412-0.405 0.194-0.141 0.431-0.327 0.712-0.56v0c0.708-0.584 1.764-1.806 3.167-3.668 1.403-1.861 2.95-4.019 4.64-6.473 1.694-2.459 2.897-4.269 3.608-5.43v0c1.153-1.897 1.808-3.25 1.964-4.062v0c-0.019-0.102 0.008-0.204 0.08-0.308v0c0.23-0.333 1.001-0.277 2.313 0.168 1.309 0.451 2.27 0.887 2.882 1.308 0.612 0.422 0.964 0.676 1.057 0.764v0c0.301 0.183 0.364 0.472 0.188 0.867v0c-0.897 2.589-1.816 5.73-2.758 9.425-0.942 3.694-1.522 6.614-1.743 8.758v0c0.032 0.175 0.079 0.284 0.139 0.326v0c0.104 0.072 0.743-0.745 1.917-2.45z" fill="#f70707" data-fill-palette-color="primary"></path><path d="M139.644 262.686v0c-0.174 7.801-0.112 12.916 0.186 15.346v0c-0.013 0.604-0.605 1.085-1.774 1.444-1.163 0.366-2.123 0.54-2.879 0.523-0.756-0.017-1.132-0.138-1.127-0.364v0c0.003-0.153 0.047-0.341 0.132-0.564v0c0.501-1.044 0.835-5.291 1-12.741v0c0.157-7.052-0.058-10.972-0.644-11.761v0l-0.144-0.233c-0.15-0.129-0.223-0.287-0.218-0.472 0.004-0.192 0.147-0.348 0.428-0.469v0c0.377-0.217 1.055-0.428 2.035-0.631 0.974-0.204 1.848-0.297 2.625-0.28 0.783 0.017 1.17 0.202 1.162 0.553v0l-0.002 0.11c-0.363 2.614-0.623 5.793-0.78 9.539z" fill="#f70707" data-fill-palette-color="primary"></path><path d="M196.137 249.561v0l-4.136-5.819c-0.633-0.942-1.235-1.612-1.807-2.011-0.576-0.405-0.878-0.629-0.908-0.673v0c-0.307-0.457 0.159-1.286 1.4-2.487 1.244-1.195 2.237-2.042 2.98-2.542 0.744-0.499 1.264-0.593 1.562-0.281v0c5.26 4.987 9.105 8.32 11.535 9.997v0c0.275 0.183 0.47 0.236 0.585 0.158 0.116-0.078 0.15-0.241 0.104-0.489v0c-1.254-4.889-2.645-9.626-4.174-14.21v0c-0.084-0.303-0.004-0.637 0.24-1 0.238-0.36 0.729-0.878 1.474-1.554 0.741-0.682 1.519-1.296 2.334-1.844 0.815-0.548 1.336-0.653 1.562-0.317v0c0.011 0.017 0.088 0.197 0.231 0.54 0.137 0.347 0.324 0.762 0.559 1.243 0.235 0.481 0.52 1.066 0.853 1.753v0c0.778 1.563 1.772 3.298 2.98 5.204 1.203 1.91 2.435 3.804 3.697 5.682v0l2.28 3.252c1.01 1.504 1.827 2.506 2.451 3.006 0.627 0.506 0.973 0.805 1.036 0.899 0.063 0.094 0.063 0.254-0.001 0.48v0c-0.293 0.956-1.098 1.876-2.414 2.761v0c-0.837 0.562-1.499 0.595-1.985 0.098v0c-0.257-0.251-0.598-0.694-1.023-1.327-0.429-0.639-1.686-2.64-3.77-6.005-2.075-3.362-3.615-5.793-4.621-7.291-1.003-1.493-1.587-2.184-1.752-2.072v0c-0.022 0.015-0.029 0.028-0.022 0.039 0.007 0.011-0.012 0.048-0.058 0.11-0.055 0.061-0.001 0.492 0.162 1.294 0.157 0.806 0.679 2.701 1.566 5.687 0.883 2.98 1.73 5.752 2.541 8.317 0.811 2.564 1.244 3.952 1.298 4.164v0c0.146 0.717-0.106 1.294-0.756 1.73v0c-0.314 0.211-0.642 0.264-0.985 0.158v0c-2.742-2.642-6.901-6.263-12.476-10.863v0l-2.799-2.257c-0.109-0.079-0.185-0.103-0.229-0.073v0c-0.105 0.07-0.126 0.193-0.065 0.367v0c0.822 1.414 2.57 4.112 5.245 8.095 2.675 3.982 4.513 6.397 5.513 7.243v0c0.042 0.027 0.091 0.083 0.147 0.165v0c0.296 0.441 0.166 0.991-0.389 1.653-0.555 0.661-1.111 1.178-1.668 1.551-0.551 0.37-0.909 0.431-1.075 0.183v0c-0.015-0.022-0.075-0.225-0.182-0.609v0c-0.404-1.279-1.24-2.964-2.508-5.054-1.268-2.09-2.779-4.44-4.532-7.051z" fill="#f70707" data-fill-palette-color="primary"></path><path d="M263.384 178.728v0c1.664 0.567 2.721 1.519 3.169 2.857 0.449 1.338 0.347 2.961-0.303 4.87v0c-1.038 3.046-2.814 4.947-5.329 5.702-2.519 0.747-5.411 0.564-8.677-0.549v0c-0.521-0.178-1.277-0.46-2.267-0.846v0l-0.68 1.998c-0.066 0.195-0.169 0.269-0.307 0.221v0c-0.408-0.139-0.829-0.51-1.261-1.113-0.435-0.597-0.571-1.134-0.408-1.611v0l0.231-0.678c-1.608-0.898-2.948-1.923-4.021-3.074-1.075-1.144-1.835-2.227-2.279-3.248-0.453-1.016-0.734-2.062-0.845-3.137v0c-0.213-1.72-0.044-3.39 0.509-5.01 0.552-1.62 1.158-2.546 1.819-2.777v0c0.328-0.099 0.844-0.028 1.547 0.212 0.703 0.24 1.027 0.441 0.972 0.604v0c-0.009 0.025-0.093 0.119-0.254 0.282v0c-0.499 0.517-0.906 1.24-1.223 2.17v0c-0.691 2.029-0.514 3.852 0.533 5.47 1.04 1.616 2.617 2.998 4.728 4.146v0c0.593-1.824 1.418-4.284 2.473-7.38v0c0.081-0.239 0.207-0.329 0.376-0.272v0c0.383 0.131 0.798 0.486 1.246 1.066 0.454 0.582 0.599 1.112 0.436 1.589v0l-2.093 6.143c0.28 0.124 0.904 0.35 1.872 0.68 0.961 0.327 2.031 0.499 3.21 0.515 1.179 0.016 2.3-0.32 3.362-1.01 1.056-0.692 1.84-1.788 2.351-3.289 0.511-1.501 0.609-2.877 0.292-4.128v0c-0.054-0.151-0.064-0.274-0.033-0.368v0c0.066-0.195 0.351-0.206 0.854-0.035z" fill="#f70707" data-fill-palette-color="primary"></path></g></svg></g></svg></g></svg></g></svg></g><defs></defs></svg><rect width="280" height="280" fill="none" stroke="none" visibility="hidden"></rect></g></svg></g></svg>